<svg width="111" height="21" viewBox="0 0 111 21" fill="none" xmlns="http://www.w3.org/2000/svg">
<path d="M15.91 10.08C17.11 10.46 18.05 11.1 18.73 12C19.41 12.88 19.75 13.97 19.75 15.27C19.75 17.11 19.03 18.53 17.59 19.53C16.17 20.51 14.09 21 11.35 21H0.49V-1.43051e-06H10.75C13.31 -1.43051e-06 15.27 0.489999 16.63 1.47C18.01 2.45 18.7 3.78 18.7 5.46C18.7 6.48 18.45 7.39 17.95 8.19C17.47 8.99 16.79 9.62 15.91 10.08ZM5.32 3.66V8.61H10.15C11.35 8.61 12.26 8.4 12.88 7.98C13.5 7.56 13.81 6.94 13.81 6.12C13.81 5.3 13.5 4.69 12.88 4.29C12.26 3.87 11.35 3.66 10.15 3.66H5.32ZM10.99 17.34C12.27 17.34 13.23 17.13 13.87 16.71C14.53 16.29 14.86 15.64 14.86 14.76C14.86 13.02 13.57 12.15 10.99 12.15H5.32V17.34H10.99ZM23.4295 -1.43051e-06H28.2895V21H23.4295V-1.43051e-06ZM37.6232 3.96H30.9032V-1.43051e-06H49.2032V3.96H42.4832V21H37.6232V3.96ZM67.2381 10.08C68.4381 10.46 69.3781 11.1 70.0581 12C70.7381 12.88 71.0781 13.97 71.0781 15.27C71.0781 17.11 70.3581 18.53 68.9181 19.53C67.4981 20.51 65.4181 21 62.6781 21H51.8181V-1.43051e-06H62.0781C64.6381 -1.43051e-06 66.5981 0.489999 67.9581 1.47C69.3381 2.45 70.0281 3.78 70.0281 5.46C70.0281 6.48 69.7781 7.39 69.2781 8.19C68.7981 8.99 68.1181 9.62 67.2381 10.08ZM56.6481 3.66V8.61H61.4781C62.6781 8.61 63.5881 8.4 64.2081 7.98C64.8281 7.56 65.1381 6.94 65.1381 6.12C65.1381 5.3 64.8281 4.69 64.2081 4.29C63.5881 3.87 62.6781 3.66 61.4781 3.66H56.6481ZM62.3181 17.34C63.5981 17.34 64.5581 17.13 65.1981 16.71C65.8581 16.29 66.1881 15.64 66.1881 14.76C66.1881 13.02 64.8981 12.15 62.3181 12.15H56.6481V17.34H62.3181ZM91.0176 17.1V21H74.7576V-1.43051e-06H90.6276V3.9H79.5876V8.46H89.3376V12.24H79.5876V17.1H91.0176ZM99.2345 3.96H92.5145V-1.43051e-06H110.815V3.96H104.095V21H99.2345V3.96Z" fill="#F9280F"/>
</svg>
